<?xml version="1.0" encoding="UTF-8" standalone="no"?>
<svg width="16px" height="16px" viewBox="0 0 16 16" version="1.1" xmlns="http://www.w3.org/2000/svg" xmlns:xlink="http://www.w3.org/1999/xlink" xmlns:sketch="http://www.bohemiancoding.com/sketch/ns">
    <!-- Generator: Sketch 3.3.2 (12043) - http://www.bohemiancoding.com/sketch -->
    <title>Oval 1 Copy 13</title>
    <desc>Created with Sketch.</desc>
    <defs></defs>
    <g id="Page-1" stroke="none" stroke-width="1" fill="none" fill-rule="evenodd" sketch:type="MSPage">
        <g id="Desktop-HD-Copy-2" sketch:type="MSArtboardGroup" transform="translate(-834.000000, -648.000000)" fill="#52A7FE">
            <g id="Boxes" sketch:type="MSLayerGroup" transform="translate(289.000000, 426.000000)">
                <g id="API-Blueprint" transform="translate(506.000000, 0.000000)" sketch:type="MSShapeGroup">
                    <path d="M48,231.414214 L49.1278413,230.286372 C49.5147642,229.899449 50.142287,229.899646 50.5355339,230.292893 C50.9260582,230.683418 50.9237531,231.318888 50.5420549,231.700586 L47.7005858,234.542055 C47.5081937,234.734447 47.2563148,234.831126 47.0033296,234.831363 L46.995697,234.828378 C46.7417337,234.827836 46.4892037,234.731844 46.2994142,234.542055 L43.4579451,231.700586 C43.0710223,231.313663 43.0712191,230.68614 43.4644661,230.292893 C43.8549904,229.902369 44.4904605,229.904674 44.8721587,230.286372 L46,231.414214 L46,225.99703 C46,225.446386 46.4438648,225 47,225 C47.5522847,225 48,225.453036 48,225.99703 L48,231.414214 Z M47,238 C51.418278,238 55,234.418278 55,230 C55,225.581722 51.418278,222 47,222 C42.581722,222 39,225.581722 39,230 C39,234.418278 42.581722,238 47,238 Z" id="Oval-1-Copy-13" transform="translate(47.000000, 230.000000) rotate(-90.000000) translate(-47.000000, -230.000000) "></path>
                </g>
            </g>
        </g>
    </g>
</svg>