<?xml version="1.0" encoding="UTF-8" standalone="no"?>
<svg width="25px" height="26px" viewBox="0 0 25 26" version="1.1" xmlns="http://www.w3.org/2000/svg" xmlns:xlink="http://www.w3.org/1999/xlink">
    <!-- Generator: Sketch 3.7 (28169) - http://www.bohemiancoding.com/sketch -->
    <title>no</title>
    <desc>Created with Sketch.</desc>
    <defs></defs>
    <g id="Page-1" stroke="none" stroke-width="1" fill="none" fill-rule="evenodd" stroke-linecap="round" stroke-linejoin="round">
        <g id="Desktop-HD" transform="translate(-319.000000, -50.000000)" stroke="#49B7FF">
            <g id="1---Was-this-page-useful?" transform="translate(50.000000, 40.000000)">
                <g id="no" transform="translate(281.000000, 23.000000) rotate(-180.000000) translate(-281.000000, -23.000000) translate(269.000000, 11.000000)">
                    <path d="M8.46666667,13.6298 L2.33333333,13.6298 C1.44973333,13.6298 0.733333333,12.9134 0.733333333,12.0298 L0.733333333,12.0298 C0.733333333,11.1462 1.44973333,10.4298 2.33333333,10.4298 L8.46666667,10.4298 C9.35026667,10.4298 10.0666667,11.1462 10.0666667,12.0298 L10.0666667,12.0298 C10.0666667,12.9134 9.35026667,13.6298 8.46666667,13.6298 L8.46666667,13.6298 Z" id="Stroke-1"></path>
                    <path d="M9.13333333,16.8298 L1.66666667,16.8298 C0.783066667,16.8298 0.0666666667,16.1134 0.0666666667,15.2298 L0.0666666667,15.2298 C0.0666666667,14.3462 0.783066667,13.6298 1.66666667,13.6298 L9.13333333,13.6298 C10.0169333,13.6298 10.7333333,14.3462 10.7333333,15.2298 L10.7333333,15.2298 C10.7333333,16.1134 10.0169333,16.8298 9.13333333,16.8298 L9.13333333,16.8298 Z" id="Stroke-3"></path>
                    <path d="M8.46666667,20.0298 L2.33333333,20.0298 C1.44973333,20.0298 0.733333333,19.3134 0.733333333,18.4298 L0.733333333,18.4298 C0.733333333,17.5462 1.44973333,16.8298 2.33333333,16.8298 L8.46666667,16.8298 C9.35026667,16.8298 10.0666667,17.5462 10.0666667,18.4298 L10.0666667,18.4298 C10.0666667,19.3134 9.35026667,20.0298 8.46666667,20.0298 L8.46666667,20.0298 Z" id="Stroke-5"></path>
                    <path d="M7.73333333,23.2 L2.93333333,23.2 C2.04973333,23.2 1.33333333,22.4836 1.33333333,21.6 L1.33333333,21.6 C1.33333333,20.7164 2.04973333,20 2.93333333,20 L7.73333333,20 C8.61693333,20 9.33333333,20.7164 9.33333333,21.6 L9.33333333,21.6 C9.33333333,22.4836 8.61693333,23.2 7.73333333,23.2 L7.73333333,23.2 Z" id="Stroke-7"></path>
                    <path d="M9,22.6666667 L19.2341333,22.6666667" id="Stroke-9"></path>
                    <path d="M23.07136,23.8818667 L19.6046933,23.8818667 C19.45736,23.8818667 19.3380267,23.7625333 19.3380267,23.6152 L19.3380267,10.8152 C19.3380267,10.6678667 19.45736,10.5485333 19.6046933,10.5485333 L23.07136,10.5485333 C23.2186933,10.5485333 23.3380267,10.6678667 23.3380267,10.8152 L23.3380267,23.6152 C23.3380267,23.7625333 23.2186933,23.8818667 23.07136,23.8818667 L23.07136,23.8818667 Z" id="Stroke-11"></path>
                    <path d="M8.38246667,10.22264 C8.38246667,10.22264 8.82686667,9.68930667 7.58246667,6.66704 C6.33806667,3.64490667 6.06193333,-0.266293333 10.0667333,0.0893066667 C10.0667333,0.0893066667 10.6491333,10.22264 19.3380667,10.8449067" id="Stroke-13"></path>
                </g>
            </g>
        </g>
    </g>
</svg>