<?xml version="1.0" encoding="UTF-8"?>
<svg width="43px" height="24px" viewBox="0 0 43 24" version="1.1" xmlns="http://www.w3.org/2000/svg" xmlns:xlink="http://www.w3.org/1999/xlink">
    <!-- Generator: Sketch 40.3 (33839) - http://www.bohemiancoding.com/sketch -->
    <title>iconmonstr-check-mark-7</title>
    <desc>Created with Sketch.</desc>
    <defs></defs>
    <g id="Page-1" stroke="none" stroke-width="1" fill="none" fill-rule="evenodd">
        <g id="EmbedInHelp" transform="translate(-486.000000, -678.000000)">
            <g id="How-it-works" transform="translate(159.000000, 678.000000)">
                <g id="iconmonstr-check-mark-7" transform="translate(327.000000, 0.000000)">
                    <path d="M19,12 C19,18.627 24.373,24 31,24 C37.627,24 43,18.627 43,12 C43,5.373 37.627,0 31,0 C24.373,0 19,5.373 19,12 Z M25.9730029,12.8929221 C25.5736994,12.5096795 25.5598176,11.880527 25.948,11.4815 L25.948,11.4815 C26.3334948,11.0852357 26.9753999,11.0783104 27.375443,11.460028 L28.994557,13.004972 C29.3974172,13.3893776 30.035141,13.3840999 30.4243211,12.9877163 L35.1286789,8.19628366 C35.5154556,7.80234797 36.144366,7.79570277 36.5395,8.1875 L36.5395,8.1875 C36.9318983,8.57658461 36.9372829,9.20997072 36.5444182,9.60943557 L30.4555818,15.8005644 C30.0658997,16.1967932 29.4263711,16.2073882 29.0269971,15.8240779 L25.9730029,12.8929221 Z" id="Shape" fill="#BEDBF1"></path>
                    <path d="M0,12 C0,18.627 5.373,24 12,24 C18.627,24 24,18.627 24,12 C24,5.373 18.627,0 12,0 C5.373,0 0,5.373 0,12 Z M6.97300285,12.8929221 C6.5736994,12.5096795 6.55981765,11.880527 6.948,11.4815 L6.948,11.4815 C7.33349476,11.0852357 7.97539992,11.0783104 8.37544303,11.460028 L9.99455697,13.004972 C10.3974172,13.3893776 11.035141,13.3840999 11.4243211,12.9877163 L16.1286789,8.19628366 C16.5154556,7.80234797 17.144366,7.79570277 17.5395,8.1875 L17.5395,8.1875 C17.9318983,8.57658461 17.9372829,9.20997072 17.5444182,9.60943557 L11.4555818,15.8005644 C11.0658997,16.1967932 10.4263711,16.2073882 10.0269971,15.8240779 L6.97300285,12.8929221 Z" id="Shape" fill="#49B7FF"></path>
                </g>
            </g>
        </g>
    </g>
</svg>