<?xml version="1.0" encoding="UTF-8"?>
<svg width="24px" height="24px" viewBox="0 0 24 24" version="1.1" xmlns="http://www.w3.org/2000/svg" xmlns:xlink="http://www.w3.org/1999/xlink">
    <!-- Generator: Sketch 40.3 (33839) - http://www.bohemiancoding.com/sketch -->
    <title>iconmonstr-link-3</title>
    <desc>Created with Sketch.</desc>
    <defs></defs>
    <g id="Page-1" stroke="none" stroke-width="1" fill="none" fill-rule="evenodd">
        <g id="EmbedInHelp" transform="translate(-161.000000, -678.000000)">
            <g id="How-it-works" transform="translate(159.000000, 678.000000)">
                <g id="iconmonstr-link-3" transform="translate(1.000000, 0.000000)">
                    <path d="M18.033,6.966 C18.617,7.549 18.617,8.495 18.033,9.078 L10.078,17.034 C9.495,17.617 8.549,17.617 7.966,17.034 C7.383,16.451 7.383,15.505 7.966,14.922 L15.922,6.966 C16.504,6.383 17.45,6.383 18.033,6.966 L18.033,6.966 Z" id="Shape" fill="#49B7FF"></path>
                    <path d="M8.895,20.352 C7.724,21.523 5.819,21.523 4.647,20.352 C3.476,19.181 3.476,17.275 4.647,16.104 L10.286,10.472 C8.394,10.013 6.315,10.522 4.837,12 L2.69,14.147 C0.436,16.401 0.436,20.056 2.69,22.31 C4.944,24.564 8.599,24.564 10.853,22.31 L13,20.162 C14.477,18.685 14.986,16.606 14.527,14.714 L8.895,20.352 L8.895,20.352 Z" id="Path" fill="#BDDBF0"></path>
                    <path d="M15.146,1.69 L13,3.838 C11.522,5.316 11.01,7.391 11.47,9.283 L17.104,3.648 C18.276,2.477 20.181,2.477 21.352,3.648 C22.524,4.819 22.524,6.725 21.352,7.896 L15.717,13.531 C17.61,13.99 19.685,13.478 21.162,12.001 L23.308,9.854 C25.562,7.6 25.562,3.946 23.308,1.691 C21.055,-0.563 17.4,-0.563 15.146,1.69 L15.146,1.69 Z" id="Path" fill="#BDDBF0"></path>
                </g>
            </g>
        </g>
    </g>
</svg>