<?xml version="1.0" encoding="UTF-8"?>
<svg width="70px" height="78px" viewBox="0 0 70 78" version="1.1" xmlns="http://www.w3.org/2000/svg" xmlns:xlink="http://www.w3.org/1999/xlink">
    <!-- Generator: Sketch 40.3 (33839) - http://www.bohemiancoding.com/sketch -->
    <title>Group</title>
    <desc>Created with Sketch.</desc>
    <defs></defs>
    <g id="Page-1" stroke="none" stroke-width="1" fill="none" fill-rule="evenodd">
        <g id="EmbedInHelp" transform="translate(-159.000000, -341.000000)">
            <g id="Header" transform="translate(159.000000, 341.000000)">
                <g id="Group">
                    <path d="M31.5358763,1.00001277 C33.449059,-0.104563784 36.5557495,-0.101787619 38.4641237,1.00001277 L66.1768924,16.9999872 C68.0900751,18.1045638 69.6410162,20.7964248 69.6410162,23.0000255 L69.6410162,54.9999745 C69.6410162,57.2091276 68.0852667,59.8982124 66.1768924,61.0000128 L38.4641237,76.9999872 C36.550941,78.1045638 33.4442505,78.1017876 31.5358763,76.9999872 L3.82310757,61.0000128 C1.90992487,59.8954362 0.358983849,57.2035752 0.358983849,54.9999745 L0.358983849,23.0000255 C0.358983849,20.7908724 1.91473333,18.1017876 3.82310757,16.9999872 L31.5358763,1.00001277 Z" id="Polygon" fill="#EBF0F3"></path>
                    <g id="iconmonstr-code-2" transform="translate(19.000000, 28.000000)">
                        <path d="M33,11.4737433 C33,12.0216135 32.5954585,12.6653407 32.0998238,12.9098744 L22.9001762,17.4487506 C22.4030226,17.6940337 22,17.4404393 22,16.8888701 L22,15.8306299 C22,15.2761333 22.3952332,14.6316012 22.8895971,14.3876625 L28.8654029,11.4389625 C29.3567138,11.1965302 29.3597668,10.8044857 28.8654029,10.5599333 L22.8895971,7.60381665 C22.3982862,7.36077455 22,6.71273445 22,6.16289665 L22,5.10797835 C22,4.55522231 22.4045415,4.30676622 22.9001762,4.55136194 L32.0998238,9.09138806 C32.5969774,9.33673335 33,9.98064792 33,10.5276317 L33,11.4737433 Z" id="Shape" fill="#49B7FF"></path>
                        <path d="M4.13459711,11.4389625 C3.64328619,11.1965302 3.6402332,10.8044857 4.13459711,10.5599333 L10.1104029,7.60381665 C10.6017138,7.36077455 11,6.71273445 11,6.16289665 L11,5.10797835 C11,4.55522231 10.5954585,4.30676622 10.0998238,4.55136194 L0.900176167,9.09138806 C0.403022598,9.33673335 0,9.98064792 0,10.5276317 L0,11.4737433 C0,12.0216135 0.404541478,12.6653407 0.900176167,12.9098744 L10.0998238,17.4487506 C10.5969774,17.6940337 11,17.4404393 11,16.8888701 L11,15.8306299 C11,15.2761333 10.6047668,14.6316012 10.1104029,14.3876625 L4.13459711,11.4389625 Z" id="Path" fill="#49B7FF"></path>
                        <path d="M18.8317024,1.58822595e-15 C18.2797891,2.06002332e-15 17.7222083,0.43945834 17.5882808,0.973699242 L12.5613442,21.0263008 C12.4265347,21.56406 12.7626211,22 13.3141729,22 L14.1707021,22 C14.7212874,22 15.277929,21.5605417 15.4120235,21.0263008 L20.4452265,0.973699242 C20.5802041,0.43594 20.2431797,3.81639165e-16 19.6902976,8.54264703e-16 L18.8317024,1.58822595e-15 Z" id="Path" fill="#BDDBF0"></path>
                    </g>
                </g>
            </g>
        </g>
    </g>
</svg>