<?xml version="1.0" encoding="UTF-8"?>
<svg width="18px" height="24px" viewBox="0 0 18 24" version="1.1" xmlns="http://www.w3.org/2000/svg" xmlns:xlink="http://www.w3.org/1999/xlink">
    <!-- Generator: Sketch 40.3 (33839) - http://www.bohemiancoding.com/sketch -->
    <title>iconmonstr-lock-17</title>
    <desc>Created with Sketch.</desc>
    <defs></defs>
    <g id="Page-1" stroke="none" stroke-width="1" fill="none" fill-rule="evenodd">
        <g id="EmbedInHelp" transform="translate(-816.000000, -678.000000)">
            <g id="How-it-works" transform="translate(159.000000, 678.000000)">
                <g id="iconmonstr-lock-17" transform="translate(657.000000, 0.000000)">
                    <path d="M3,6 C3,2.687 5.687,0 9,0 C12.312,0 15,2.687 15,6 L15,7 C15,7.55228475 14.5561352,8 14,8 L14,8 C13.4477153,8 13,7.55613518 13,7 L13,6 C13,3.794 11.205,2 9,2 C6.795,2 5,3.794 5,6 L5,7 C5,7.55228475 4.55613518,8 4,8 L4,8 C3.44771525,8 3,7.55613518 3,7 L3,6 Z" id="Shape" fill="#49B7FF"></path>
                    <path d="M0,22.9931545 C0,23.5492199 0.444946289,24 0.993397683,24 L17.0066023,24 C17.5552407,24 18,23.5500512 18,22.9931545 L18,11.0068455 C18,10.4507801 17.5550537,10 17.0066023,10 L0.993397683,10 C0.444759292,10 0,10.4499488 0,11.0068455 L0,22.9931545 Z" id="Path" fill="#BDDBF0"></path>
                </g>
            </g>
        </g>
    </g>
</svg>