<?xml version="1.0" encoding="UTF-8" standalone="no"?>
<svg width="16px" height="16px" viewBox="0 0 16 16" version="1.1" xmlns="http://www.w3.org/2000/svg" xmlns:xlink="http://www.w3.org/1999/xlink" xmlns:sketch="http://www.bohemiancoding.com/sketch/ns">
    <!-- Generator: Sketch 3.4.4 (17249) - http://www.bohemiancoding.com/sketch -->
    <title>Oval 1</title>
    <desc>Created with Sketch.</desc>
    <defs></defs>
    <g id="Page-1" stroke="none" stroke-width="1" fill="none" fill-rule="evenodd" sketch:type="MSPage">
        <g id="swagger-landing-page-copy-2" sketch:type="MSArtboardGroup" transform="translate(-860.000000, -778.000000)" fill="#46A2FF">
            <g id="We've-Got-Swagger" sketch:type="MSLayerGroup" transform="translate(240.000000, 676.000000)">
                <g id="Read-More-+-Apiary-is-now-biling" transform="translate(490.000000, 0.000000)" sketch:type="MSShapeGroup">
                    <g id="Read-More" transform="translate(0.000000, 86.000000)">
                        <path d="M139,25.4142136 L140.127841,24.2863723 C140.514764,23.8994494 141.142287,23.8996463 141.535534,24.2928932 C141.926058,24.6834175 141.923753,25.3188876 141.542055,25.7005858 L138.700586,28.5420549 C138.508194,28.734447 138.256315,28.831126 138.00333,28.8313631 C137.741734,28.8278359 137.489204,28.7318444 137.299414,28.5420549 L134.457945,25.7005858 C134.071022,25.313663 134.071219,24.6861402 134.464466,24.2928932 C134.85499,23.9023689 135.49046,23.904674 135.872159,24.2863723 L137,25.4142136 L137,19.9970301 C137,19.4463856 137.443865,19 138,19 C138.552285,19 139,19.4530363 139,19.9970301 L139,25.4142136 Z M138,32 C142.418278,32 146,28.418278 146,24 C146,19.581722 142.418278,16 138,16 C133.581722,16 130,19.581722 130,24 C130,28.418278 133.581722,32 138,32 Z" id="Oval-1" transform="translate(138.000000, 24.000000) rotate(-90.000000) translate(-138.000000, -24.000000) "></path>
                    </g>
                </g>
            </g>
        </g>
    </g>
</svg>