<?xml version="1.0" encoding="UTF-8" standalone="no"?>
<svg width="25px" height="24px" viewBox="0 0 25 24" version="1.1" xmlns="http://www.w3.org/2000/svg" xmlns:xlink="http://www.w3.org/1999/xlink" xmlns:sketch="http://www.bohemiancoding.com/sketch/ns">
    <!-- Generator: Sketch 3.4.4 (17249) - http://www.bohemiancoding.com/sketch -->
    <title>github</title>
    <desc>Created with Sketch.</desc>
    <defs></defs>
    <g id="Page-1" stroke="none" stroke-width="1" fill="none" fill-rule="evenodd" sketch:type="MSPage">
        <g id="swagger-landing-page-copy-2" sketch:type="MSArtboardGroup" transform="translate(-769.000000, -416.000000)" fill="#FFFFFF">
            <g id="CTA" sketch:type="MSLayerGroup" transform="translate(739.000000, 397.000000)">
                <g id="Quickstart-with-GitH-+-github" transform="translate(30.000000, 18.000000)" sketch:type="MSShapeGroup">
                    <path d="M12,1 C5.4,1 0,6.4 0,13 C0,18.8 4.1,23.6 9.6,24.7 L9.6,21.2 C6.7,21.9 6.1,19.9 6.1,19.9 C5.6,18.7 5,18.4 5,18.4 C4,17.8 5,17.8 5,17.8 C6,17.9 6.6,18.9 6.6,18.9 C7.5,20.5 9,20 9.6,19.7 C9.7,19 10,18.6 10.2,18.3 C7.9,18 5.5,17.2 5.5,13.2 C5.5,12.1 5.9,11.2 6.6,10.5 C6.5,10.3 6.2,9.2 6.7,7.8 C6.7,7.8 7.6,7.5 9.5,8.8 C10.3,8.6 11.2,8.5 12.1,8.5 C13,8.5 13.8,8.6 14.7,8.8 C16.7,7.5 17.5,7.8 17.5,7.8 C18.1,9.2 17.7,10.2 17.6,10.5 C18.3,11.2 18.7,12.1 18.7,13.2 C18.7,17.1 16.3,18 14,18.2 C14.4,18.5 14.7,19.1 14.7,20.1 L14.7,24.6 C20.1,23.4 24.1,18.6 24.1,12.9 C24,6.4 18.6,1 12,1" id="github"></path>
                </g>
            </g>
        </g>
    </g>
</svg>